<svg width="24" height="25" viewBox="0 0 24 25" fill="none" xmlns="http://www.w3.org/2000/svg">
<g clip-path="url(#clip0_216_1314)">
<path d="M12 2.33331C6.48 2.33331 2 6.81331 2 12.3333C2 17.8533 6.48 22.3333 12 22.3333C17.52 22.3333 22 17.8533 22 12.3333C22 6.81331 17.52 2.33331 12 2.33331ZM12 5.33331C13.66 5.33331 15 6.67331 15 8.33331C15 9.99331 13.66 11.3333 12 11.3333C10.34 11.3333 9 9.99331 9 8.33331C9 6.67331 10.34 5.33331 12 5.33331ZM12 19.5333C9.5 19.5333 7.29 18.2533 6 16.3133C6.03 14.3233 10 13.2333 12 13.2333C13.99 13.2333 17.97 14.3233 18 16.3133C16.71 18.2533 14.5 19.5333 12 19.5333Z" fill="#0E8388"/>
</g>
<defs>
<clipPath id="clip0_216_1314">
<rect width="24" height="24" fill="white" transform="translate(0 0.333313)"/>
</clipPath>
</defs>
</svg>
