<svg width="32" height="27" viewBox="0 0 32 27" fill="none" xmlns="http://www.w3.org/2000/svg">
<mask id="mask0_216_2513" style="mask-type:luminance" maskUnits="userSpaceOnUse" x="1" y="6" width="30" height="8">
<path d="M1.78842 6.97424H30.2098V13.1182H1.78842V6.97424Z" fill="white"/>
</mask>
<g mask="url(#mask0_216_2513)">
<path d="M30.112 10.1022L29.9369 10.1138C29.9173 10.1147 29.8986 10.1156 29.8791 10.1165L29.7617 10.1218C29.7235 10.1236 29.6844 10.1236 29.6453 10.1254C29.568 10.128 29.4906 10.1271 29.4124 10.128C29.3937 10.128 29.3742 10.1271 29.3546 10.1271L29.2382 10.1254L29.2097 10.1245L29.1804 10.1236C29.1031 10.12 29.0257 10.1182 28.9493 10.112C28.9102 10.1094 28.872 10.1076 28.8337 10.104L28.7182 10.0942C28.6986 10.0925 28.68 10.0916 28.6604 10.0889L28.6035 10.0827L28.4889 10.0694L28.3742 10.0542L28.3173 10.0462L28.2604 10.0374L28.1466 10.0187L28.0337 9.99735L27.9777 9.98669C27.9591 9.98313 27.9404 9.97869 27.9217 9.97513L27.8097 9.95024C27.7911 9.94669 27.7724 9.94224 27.7537 9.93691L27.6986 9.92358C27.6613 9.91469 27.624 9.9058 27.5884 9.89602L27.4809 9.8658L27.4533 9.85869L27.4249 9.8498L27.368 9.83291L27.2826 9.80624L27.2595 9.79824L27.1511 9.76091L27.0417 9.72358C27.024 9.71824 27.0062 9.71113 26.9884 9.70402L26.9342 9.68358L26.8266 9.64269L26.7733 9.62224C26.7546 9.61602 26.7369 9.60802 26.7191 9.60002L26.5057 9.51202L26.2942 9.4178C26.2586 9.40269 26.224 9.3858 26.1884 9.36891L26.0835 9.31913L26.0311 9.29513L26.0044 9.28269L25.9777 9.26935L25.768 9.16624C25.7333 9.14935 25.6986 9.13158 25.6631 9.1138L25.5582 9.06047C25.5235 9.04358 25.4889 9.0258 25.4533 9.00713L25.2444 8.89958L24.8222 8.68091L24.6097 8.57158L24.5031 8.51647L24.3955 8.46313L24.288 8.40891L24.2346 8.38224L24.1804 8.35647L23.9617 8.25158L23.7413 8.15024C23.7049 8.13335 23.6657 8.11735 23.6284 8.10047L23.5137 8.05158L23.4569 8.02758L23.4284 8.01513L23.4009 8.00447L23.2906 7.96091L23.1662 7.91113L23.1475 7.90402L23.1191 7.89335L23.0622 7.87291L22.9484 7.83113L22.8915 7.8098C22.8729 7.80358 22.8533 7.79647 22.8346 7.79024L22.6053 7.71113L22.3742 7.63558C22.3555 7.62935 22.336 7.62313 22.3164 7.61691L22.2586 7.60002L22.1431 7.56447C22.104 7.55291 22.0649 7.54135 22.0266 7.5298L21.9093 7.49691C21.832 7.47469 21.7537 7.45247 21.6755 7.43291L21.4995 7.38758L21.4693 7.37958L21.44 7.37247L21.2035 7.31647C20.5715 7.17424 19.9297 7.07202 19.2835 7.02047L19.1626 7.01069L19.1324 7.00802L19.1013 7.00624L18.9173 6.99558C18.8764 6.99291 18.8346 6.99024 18.7955 6.98935L18.5582 6.98047L18.5395 6.97958H18.5244L18.4951 6.97869L18.4337 6.9778L18.3137 6.97602C18.2329 6.97424 18.152 6.97424 18.072 6.97424C17.9911 6.97513 17.9102 6.97424 17.8293 6.97602L17.5875 6.98135L17.3457 6.99024L17.2853 6.99291C17.2657 6.9938 17.2453 6.99558 17.2249 6.99647L16.9831 7.01069C16.9635 7.01158 16.9431 7.01335 16.9226 7.01513L16.8622 7.02047C16.7822 7.02669 16.7013 7.03291 16.6204 7.04002L16.3795 7.0658L16.3191 7.07202L16.2595 7.08002L16.0186 7.11113C15.9786 7.11647 15.9386 7.12269 15.8986 7.12891L15.7786 7.14758L15.7182 7.15735L15.6889 7.1618L15.6586 7.16802L15.4195 7.21158C15.3795 7.21869 15.3404 7.22758 15.3004 7.23558L15.1813 7.26135L15.0622 7.28624L14.9449 7.31558L14.8257 7.34491L14.7671 7.35913C14.7475 7.36447 14.728 7.3698 14.7084 7.37513L14.4737 7.44091L14.4444 7.44891L14.3573 7.47647L14.2409 7.51291L14.1831 7.53158C14.1635 7.5378 14.144 7.54313 14.1244 7.55024L13.8915 7.63202L13.8337 7.65335L13.7786 7.67469L13.5573 7.7618L13.5395 7.76891L13.5253 7.77513L13.4969 7.78669L13.4409 7.81158L13.3289 7.86047C13.2915 7.87558 13.2551 7.89335 13.2186 7.91024L13.1084 7.96269C13.0346 7.99647 12.9626 8.0338 12.8906 8.07024C12.8542 8.08802 12.8177 8.1058 12.7822 8.12447L12.6755 8.18135C12.3911 8.33247 12.1146 8.49247 11.84 8.65069C11.5662 8.81069 11.2942 8.96802 11.0186 9.11735C10.9502 9.15469 10.8809 9.19024 10.8115 9.22669C10.7769 9.24447 10.7431 9.26313 10.7075 9.28002L10.6035 9.33158L10.4986 9.38313C10.464 9.40002 10.4284 9.41513 10.3929 9.43202L10.2871 9.48002C10.2524 9.49691 10.2169 9.51024 10.1822 9.52535L10.0764 9.5698L10.024 9.59113C10.0053 9.59824 9.98663 9.60535 9.96797 9.61247L9.85685 9.65335L9.80085 9.67469L9.7733 9.68447C9.76797 9.68713 9.77241 9.68535 9.76974 9.68624L9.76263 9.68802L9.7493 9.69247C9.60619 9.74224 9.45774 9.78313 9.30841 9.81958C9.00797 9.89158 8.69863 9.94313 8.38663 9.99202C8.23108 10.0169 8.07463 10.0409 7.91641 10.0667L7.85774 10.0765L7.79819 10.0862C7.75908 10.0934 7.71819 10.0996 7.67997 10.1067L7.44619 10.1494C7.13597 10.2062 6.82308 10.2578 6.51019 10.312C5.8853 10.4205 5.25685 10.536 4.63997 10.7058C4.33152 10.7911 4.02663 10.8889 3.72885 11.0098C3.58041 11.0711 3.43374 11.1378 3.29063 11.2107L3.26308 11.2249L3.23641 11.2391L3.18397 11.2676C3.14841 11.2871 3.11374 11.3076 3.07819 11.3271C3.04441 11.3485 3.00974 11.3689 2.97508 11.3902C2.9413 11.4125 2.90752 11.4338 2.87374 11.4569L2.82397 11.4916L2.77508 11.5271C2.74219 11.5502 2.71019 11.5751 2.67819 11.6009C2.66219 11.6125 2.64708 11.6258 2.63108 11.6382L2.58485 11.6774L2.53952 11.7174C2.52441 11.7316 2.5093 11.744 2.49508 11.7591L2.45063 11.8009L2.43997 11.8107L2.40797 11.8436C2.39374 11.8587 2.37952 11.8729 2.36619 11.8871L2.3253 11.9325C2.31819 11.9405 2.31108 11.9476 2.30485 11.9556L2.2853 11.9787L2.24708 12.0249L2.20974 12.0729C2.1973 12.0898 2.18485 12.1058 2.1733 12.1218L2.13863 12.1716C2.13241 12.1796 2.12708 12.1885 2.12174 12.1974L2.10485 12.2231L2.08885 12.248C2.08352 12.2569 2.07819 12.2649 2.07285 12.2738L2.04263 12.3262C2.0373 12.3351 2.03197 12.344 2.02752 12.3529L1.98485 12.4338L1.95908 12.488C1.95108 12.5067 1.94219 12.5245 1.93419 12.544L1.91108 12.5991L1.88974 12.656C1.88352 12.6756 1.87641 12.6942 1.87019 12.7129L1.85152 12.7707L1.84263 12.8C1.83997 12.8098 1.8373 12.8196 1.83463 12.8294L1.81952 12.888L1.81597 12.9022C1.81419 12.9076 1.8133 12.912 1.81241 12.9174L1.79374 13.0045C1.79019 13.0214 1.80085 13.0382 1.81774 13.0427C1.83463 13.0471 1.85241 13.0365 1.85685 13.0196L1.87197 12.9618L1.87908 12.9334C1.88085 12.928 1.88174 12.9236 1.88263 12.9182L1.88708 12.9049L1.90397 12.8489C1.90752 12.84 1.9093 12.8302 1.91285 12.8214L1.94219 12.7387C1.9493 12.7209 1.95641 12.7031 1.96352 12.6845L1.97508 12.6578L1.98041 12.6445L1.98663 12.6311L2.01063 12.5778C2.01863 12.56 2.02752 12.5431 2.03641 12.5254L2.06308 12.4738L2.09152 12.4231L2.10574 12.3982C2.11108 12.3894 2.11641 12.3814 2.12174 12.3734L2.15285 12.3245C2.1573 12.3156 2.16352 12.3076 2.16885 12.2996L2.18485 12.2765L2.20174 12.2525C2.20708 12.2445 2.21241 12.2365 2.21863 12.2285L2.25419 12.1822C2.26485 12.1662 2.27819 12.152 2.29063 12.1369L2.32708 12.0925L2.36619 12.0489L2.38574 12.0276C2.39197 12.0205 2.39908 12.0134 2.4053 12.0062L2.44619 11.9645C2.45952 11.9511 2.47374 11.9378 2.48797 11.9245L2.50841 11.904L2.52974 11.8845L2.5733 11.8454C2.58752 11.8329 2.60263 11.8205 2.61774 11.808L2.66219 11.7707L2.70841 11.7351C2.72352 11.7236 2.73952 11.712 2.75463 11.7005C2.78663 11.6774 2.81774 11.6542 2.85063 11.6338L2.89863 11.6009L2.94752 11.5698C2.98041 11.5485 3.01419 11.5289 3.04708 11.5094C3.06397 11.4987 3.08085 11.4898 3.09774 11.48L3.14841 11.4516C3.18308 11.4338 3.21774 11.4151 3.25241 11.3974L3.30485 11.3716L3.33063 11.3582L3.3573 11.3458C3.49774 11.2791 3.64263 11.2187 3.7893 11.1645C4.08174 11.056 4.38397 10.9698 4.68974 10.8969C4.99463 10.8231 5.30397 10.7636 5.61419 10.7102C5.9253 10.6569 6.2373 10.6107 6.55019 10.5662C6.86397 10.5218 7.17774 10.4791 7.4933 10.4311L7.72797 10.3947C7.76708 10.3894 7.8053 10.384 7.84441 10.3787L7.90219 10.3707L7.96085 10.3627C8.11641 10.3414 8.27374 10.3227 8.43108 10.3022C8.5893 10.2818 8.74752 10.2605 8.90574 10.2365C9.06485 10.2125 9.22397 10.184 9.38308 10.1502C9.54219 10.1174 9.7013 10.0782 9.85863 10.0285L9.87374 10.024L9.88174 10.0214C9.88263 10.0214 9.89241 10.0178 9.89152 10.0178L9.91997 10.0089L9.97597 9.98935L10.0889 9.95113C10.1075 9.94491 10.1262 9.93869 10.1449 9.93158L10.2026 9.90935L10.3173 9.8658C10.3955 9.83647 10.4693 9.80447 10.544 9.77247C10.5813 9.75735 10.6186 9.74135 10.656 9.72535L10.7653 9.67469L10.8755 9.62402C10.9129 9.60713 10.9484 9.58935 10.9849 9.57158C11.0569 9.53602 11.1297 9.50135 11.2009 9.46491C11.4871 9.31913 11.7671 9.16535 12.0444 9.01424C12.3226 8.86224 12.5991 8.71291 12.8782 8.57247L12.9822 8.52002C13.0169 8.50313 13.0524 8.48624 13.0871 8.46935C13.1573 8.43647 13.2275 8.4018 13.2986 8.37158L13.4044 8.32447C13.44 8.30847 13.4746 8.29247 13.5111 8.27913L13.6177 8.23558L13.6711 8.21335L13.7111 8.19735C13.712 8.19735 13.712 8.19735 13.712 8.19735C13.712 8.19735 13.712 8.19735 13.7146 8.19647L13.7209 8.1938L13.944 8.11202L14 8.09158L14.2711 8.00269C14.2889 7.99647 14.3084 7.99113 14.3271 7.9858L14.3822 7.9698L14.5493 7.92091L14.5769 7.91291L14.6053 7.9058L14.8293 7.84802C14.848 7.84358 14.8666 7.83824 14.8853 7.8338L14.9422 7.82135L15.0551 7.79647L15.1689 7.77069L15.2826 7.74935L15.3964 7.72713C15.4346 7.72002 15.472 7.71202 15.5111 7.70669L15.7395 7.66935L15.7689 7.66402L15.7973 7.66047L15.8551 7.65247L15.9697 7.63735C16.0089 7.63202 16.0471 7.62669 16.0853 7.62224L16.2009 7.6098L16.3164 7.59647L16.3742 7.59024L16.4329 7.5858L16.6649 7.56624C16.7422 7.56091 16.8195 7.55735 16.8969 7.55291L16.9555 7.54935C16.9742 7.54847 16.9937 7.54669 17.0133 7.54669L17.2462 7.53869C17.2657 7.5378 17.2853 7.53691 17.3049 7.53691L17.5964 7.53335L17.8293 7.53602C17.9075 7.53602 17.9857 7.53958 18.0631 7.54135C18.1413 7.54402 18.2186 7.5458 18.2969 7.55024L18.5271 7.5618L18.7635 7.57958C18.8044 7.58135 18.8417 7.5858 18.88 7.58935L19.0791 7.60802L19.1084 7.61158L19.224 7.62491C19.8382 7.69602 20.448 7.81513 21.0497 7.96447C21.3502 8.04002 21.6489 8.12358 21.9449 8.21513L22.056 8.2498L22.112 8.26669L22.1671 8.28447L22.3884 8.35735L22.6089 8.43291C22.6266 8.43913 22.6453 8.44535 22.664 8.45158L22.7182 8.47202L22.8284 8.51113L22.8826 8.53069L22.9102 8.54047L22.9173 8.54313C22.9173 8.54313 22.9262 8.54669 22.9191 8.54402L22.9333 8.54935L23.0444 8.59202L23.1831 8.64535L23.2097 8.65602L23.2622 8.67735L23.3671 8.72091C23.4017 8.73513 23.4364 8.74935 23.472 8.76447L23.6853 8.8578L23.8977 8.9538L23.9511 8.9778L24.0044 9.00269L24.2177 9.10135L24.5377 9.25335C25.1075 9.52535 25.688 9.80447 26.2977 10.0329C26.6026 10.1467 26.9146 10.2454 27.2346 10.3236L27.2924 10.3378L27.3209 10.3449L27.352 10.3511L27.4755 10.3769C27.5164 10.3867 27.5564 10.3929 27.5973 10.4L27.6577 10.4107C27.6782 10.4142 27.6986 10.4187 27.7191 10.4214L27.8409 10.4391C27.8613 10.4427 27.8809 10.4454 27.9013 10.448L27.9626 10.4551L28.0844 10.4702L28.2684 10.4862L28.4515 10.4978C28.4924 10.4996 28.5333 10.5014 28.5742 10.5022L28.6346 10.5049C28.6551 10.5058 28.6755 10.5058 28.696 10.5058L28.8186 10.5067C28.8595 10.5076 28.8995 10.5058 28.9404 10.5058C29.0213 10.5049 29.1031 10.5005 29.184 10.4978L29.2444 10.4942L29.3662 10.4862C29.3866 10.4845 29.4071 10.4836 29.4266 10.4818C29.5075 10.4738 29.5884 10.4676 29.6684 10.4578C29.6924 10.4551 29.7164 10.4525 29.7404 10.4489C29.7253 10.4702 29.7093 10.4916 29.6951 10.5138C29.648 10.5867 29.6071 10.664 29.5742 10.7458C29.5422 10.8267 29.5182 10.912 29.5049 10.9982C29.4986 11.0418 29.4942 11.0854 29.4933 11.1289C29.4915 11.1725 29.4933 11.216 29.4977 11.2587C29.5013 11.3014 29.5084 11.344 29.5173 11.3867C29.5217 11.4071 29.5271 11.4276 29.5324 11.448C29.5386 11.4685 29.544 11.4889 29.5511 11.5094C29.5626 11.5431 29.576 11.5751 29.5893 11.6071C29.5671 11.5894 29.5449 11.5716 29.5209 11.5547C29.5057 11.544 29.4897 11.5325 29.4746 11.5209C29.4586 11.5102 29.4426 11.4996 29.4275 11.4889L29.4035 11.472C29.3955 11.4667 29.3875 11.4614 29.3795 11.456L29.3324 11.4231L29.3084 11.4071L29.2835 11.3911C29.2675 11.3814 29.2515 11.3707 29.2355 11.36C29.2035 11.3396 29.1706 11.32 29.1386 11.3005C29.0977 11.2765 29.0569 11.2534 29.0169 11.232C28.9724 11.1965 28.9262 11.1609 28.8782 11.1254C28.8089 11.0756 28.7369 11.0249 28.6604 10.976C28.6409 10.9636 28.6213 10.9511 28.6026 10.9387C28.5831 10.9262 28.5626 10.9147 28.5431 10.9022C28.5226 10.8898 28.5031 10.8782 28.4826 10.8658C28.4622 10.8542 28.4409 10.8418 28.4204 10.8302C28.2533 10.736 28.0702 10.6462 27.8746 10.5671C27.776 10.5271 27.6746 10.4898 27.5706 10.4551C27.4657 10.4205 27.3591 10.3885 27.2489 10.3582C27.0293 10.2996 26.7991 10.2516 26.5609 10.2125C26.4426 10.1929 26.3217 10.176 26.2 10.1609C26.0773 10.1458 25.9537 10.1325 25.8284 10.1209C25.7662 10.1147 25.7031 10.1094 25.64 10.1049C25.608 10.1022 25.576 10.0996 25.5431 10.0969C25.512 10.0951 25.48 10.0934 25.4489 10.0916L25.4009 10.088C25.3849 10.088 25.3689 10.0871 25.352 10.0862C25.32 10.0845 25.2871 10.0827 25.2542 10.0818C25.1884 10.08 25.1235 10.0774 25.0577 10.0765C24.9262 10.0738 24.7937 10.0756 24.6595 10.0791C24.6266 10.08 24.5929 10.0818 24.56 10.0827C24.5262 10.0836 24.4924 10.0854 24.4586 10.0871C24.4257 10.088 24.392 10.0907 24.3582 10.0925C24.3244 10.0942 24.2906 10.0969 24.2569 10.0987C23.9875 10.1174 23.7164 10.1476 23.4444 10.1849C22.9013 10.2587 22.3591 10.3618 21.8204 10.4462C21.6853 10.4667 21.5511 10.4862 21.416 10.5049C21.28 10.5227 21.144 10.5414 21.0089 10.5591C20.8729 10.5769 20.7377 10.5938 20.6035 10.6098C20.4684 10.6267 20.3342 10.6427 20.2 10.6578C19.664 10.7191 19.136 10.7689 18.6249 10.8027C18.1137 10.8356 17.6186 10.8525 17.1493 10.8516C16.9146 10.8507 16.6862 10.8454 16.4657 10.8356C16.2453 10.8267 16.032 10.8116 15.8284 10.7947C15.624 10.7769 15.4293 10.7547 15.2435 10.7307C15.0586 10.7058 14.8835 10.6782 14.7191 10.6489C14.5555 10.6196 14.4026 10.5876 14.2613 10.5574C14.2257 10.5494 14.192 10.5414 14.1582 10.5334C14.1244 10.5254 14.0915 10.5174 14.0586 10.5094C14.0266 10.5014 13.9955 10.4934 13.9653 10.4862C13.9342 10.4782 13.904 10.4702 13.8755 10.4622C13.8177 10.4471 13.7626 10.4329 13.7111 10.4178C13.6853 10.4098 13.6604 10.4036 13.6364 10.3965C13.6124 10.3894 13.5893 10.3822 13.5662 10.3751C13.5217 10.3627 13.4809 10.3494 13.4426 10.3369C13.4053 10.3262 13.3706 10.3147 13.3404 10.3049C13.3093 10.2942 13.2817 10.2862 13.2586 10.2782C13.2355 10.2702 13.216 10.2631 13.2 10.2578C13.1689 10.2471 13.152 10.2418 13.152 10.2418C13.152 10.2418 13.168 10.2489 13.1982 10.2631C13.2284 10.2774 13.2729 10.2987 13.3324 10.3245C13.3617 10.3378 13.3955 10.352 13.432 10.368C13.4684 10.3831 13.5084 10.4 13.552 10.4178C13.5733 10.4267 13.5964 10.4356 13.6195 10.4445C13.6426 10.4542 13.6675 10.4631 13.6924 10.4729C13.7431 10.4934 13.7964 10.512 13.8533 10.5334C14.0809 10.6151 14.3617 10.7049 14.6897 10.7876C14.8533 10.8302 15.0284 10.8694 15.2151 10.9067C15.4009 10.944 15.5973 10.9778 15.8035 11.0071C16.216 11.0667 16.6657 11.1102 17.1422 11.1316C17.6186 11.1538 18.1226 11.1538 18.6417 11.1351C19.1617 11.1156 19.6969 11.0765 20.2391 11.0231C20.3742 11.0098 20.5102 10.9956 20.6462 10.9805C20.7822 10.9654 20.9191 10.9494 21.056 10.9334C21.1235 10.9245 21.192 10.9165 21.2604 10.9076C21.3289 10.8987 21.3973 10.8907 21.4657 10.8818L21.5689 10.8676C21.6035 10.8631 21.6373 10.8587 21.672 10.8534C21.7413 10.8445 21.8097 10.8338 21.8782 10.8231C22.4275 10.7396 22.9671 10.6347 23.4969 10.5582C23.6293 10.5387 23.7617 10.5209 23.8933 10.5058C24.0249 10.4898 24.1555 10.4765 24.2853 10.4658C24.5457 10.4436 24.8026 10.432 25.056 10.4302C25.1191 10.4294 25.1822 10.4311 25.2444 10.4311C25.2755 10.432 25.3066 10.4329 25.3377 10.4338C25.3529 10.4338 25.3689 10.4338 25.384 10.4347C25.4 10.4347 25.416 10.4356 25.4311 10.4365C25.4631 10.4374 25.4951 10.4382 25.5262 10.44C25.5573 10.4409 25.5875 10.4427 25.6177 10.4436C25.6489 10.4454 25.68 10.4471 25.7111 10.4489C25.7413 10.4507 25.7724 10.4525 25.8026 10.4542C25.9253 10.4614 26.0471 10.4702 26.1653 10.48C26.2853 10.4907 26.4026 10.5031 26.5182 10.5165C26.6329 10.5307 26.7466 10.5467 26.8577 10.5654C26.9689 10.5831 27.0782 10.6036 27.184 10.6267C27.3973 10.672 27.6 10.7271 27.7911 10.7911C27.9813 10.856 28.1609 10.9289 28.3271 11.008C28.4106 11.048 28.4906 11.0898 28.5671 11.1316C28.6435 11.1734 28.7173 11.2169 28.7875 11.2596C28.8577 11.3031 28.9253 11.3467 28.9884 11.3902C29.0533 11.4338 29.1137 11.4774 29.1715 11.52C29.2293 11.5627 29.2844 11.6045 29.336 11.6454C29.3813 11.6809 29.424 11.7165 29.4649 11.7502C29.4702 11.7556 29.4764 11.7618 29.4826 11.768C29.5084 11.792 29.5324 11.8169 29.5573 11.8409C29.6062 11.888 29.6542 11.9334 29.6995 11.9769C29.7226 11.9982 29.744 12.0196 29.7653 12.0409C29.776 12.0507 29.7866 12.0614 29.7964 12.0711C29.8062 12.0809 29.8169 12.0916 29.8257 12.1014C29.8657 12.1396 29.9004 12.1769 29.9324 12.2089C29.9404 12.2169 29.9475 12.2249 29.9555 12.2329C29.9626 12.2409 29.9697 12.248 29.976 12.2551C29.9902 12.2694 30.0026 12.2827 30.0142 12.2951C30.0364 12.3191 30.0551 12.3387 30.0675 12.3511C30.0809 12.3636 30.088 12.3707 30.088 12.3707C30.0906 12.3734 30.0942 12.3742 30.0977 12.3734C30.1022 12.3725 30.1057 12.3662 30.1049 12.3618C30.1049 12.3618 30.1022 12.352 30.0969 12.3342C30.0924 12.3165 30.0844 12.2907 30.0729 12.2587C30.0675 12.2427 30.0595 12.2249 30.0524 12.2062C30.0435 12.1876 30.0355 12.1662 30.0249 12.1449C30.0142 12.1245 30.0017 12.1014 29.9893 12.0782C29.9769 12.0542 29.9617 12.0311 29.9466 12.0062C29.9386 11.9929 29.9306 11.9805 29.9226 11.968C29.9137 11.9556 29.9049 11.9431 29.896 11.9298C29.8773 11.904 29.8586 11.8774 29.8373 11.8516C29.8222 11.8338 29.8071 11.816 29.7911 11.7982C29.7742 11.7636 29.7582 11.7289 29.744 11.6942C29.7404 11.6845 29.7369 11.6756 29.7333 11.6667L29.7235 11.64L29.7191 11.6267L29.7146 11.6125L29.7057 11.5849C29.6942 11.5485 29.6844 11.512 29.6773 11.4747C29.6729 11.456 29.6711 11.4374 29.6675 11.4196C29.6649 11.4009 29.6622 11.3822 29.6613 11.3636C29.6577 11.3262 29.656 11.2889 29.6577 11.2525C29.6577 11.2338 29.6595 11.216 29.6604 11.1974C29.6622 11.1796 29.664 11.1609 29.6666 11.1431C29.672 11.1067 29.68 11.0711 29.6889 11.0365C29.6986 11.0018 29.7102 10.9671 29.7244 10.9334C29.7377 10.8996 29.7529 10.8676 29.7697 10.8356C29.8044 10.7707 29.8453 10.7102 29.8906 10.6534C29.9369 10.5965 29.9875 10.544 30.0417 10.4942C30.0693 10.4702 30.0977 10.4462 30.1262 10.4249C30.1404 10.4134 30.1546 10.4027 30.1697 10.3929C30.1769 10.3876 30.184 10.3822 30.1911 10.3778L30.2017 10.3707L30.2071 10.368C30.208 10.3671 30.2106 10.3654 30.2106 10.3662L30.112 10.1022Z" fill="#0E8388"/>
</g>
<path d="M6.92154 14.075H8.16598C8.46465 14.075 8.69932 14.139 8.86998 14.267C9.04243 14.3932 9.12954 14.5674 9.12954 14.7896C9.12954 14.9514 9.08421 15.0883 8.99443 15.2021C8.90376 15.3158 8.78109 15.3923 8.62465 15.4296C8.81665 15.4634 8.96687 15.5434 9.07621 15.6714C9.18465 15.7994 9.23976 15.9612 9.23976 16.155C9.23976 16.3994 9.14554 16.5914 8.95887 16.731C8.77398 16.8714 8.51887 16.9407 8.19443 16.9407H6.92154V14.075ZM7.40509 14.5052V15.2625H8.14109C8.29487 15.2625 8.41576 15.2287 8.50376 15.1594C8.59087 15.091 8.63532 14.9976 8.63532 14.8785C8.63532 14.7576 8.59087 14.6652 8.50376 14.6012C8.41843 14.5372 8.29754 14.5052 8.14109 14.5052H7.40509ZM7.40509 15.6856V16.5105H8.14109C8.33309 16.5105 8.48065 16.475 8.58554 16.4038C8.69221 16.331 8.74554 16.2278 8.74554 16.0945C8.74554 15.9692 8.69221 15.8696 8.58554 15.7958C8.47887 15.723 8.33043 15.6856 8.14109 15.6856H7.40509Z" fill="#0E8388"/>
<path d="M10.2173 14.4767C10.5106 14.1994 10.8715 14.0607 11.2982 14.0607C11.7266 14.0607 12.0875 14.1994 12.379 14.4767C12.6724 14.7541 12.8199 15.0981 12.8199 15.5078C12.8199 15.9185 12.6724 16.2634 12.379 16.5425C12.0875 16.8225 11.7266 16.9621 11.2982 16.9621C10.8715 16.9621 10.5106 16.8225 10.2173 16.5425C9.92572 16.2634 9.77994 15.9185 9.77994 15.5078C9.77994 15.0981 9.92572 14.7541 10.2173 14.4767ZM11.3053 14.4945C11.0208 14.4945 10.7764 14.5932 10.5728 14.7896C10.371 14.9843 10.2706 15.2234 10.2706 15.5078C10.2706 15.7923 10.3719 16.0341 10.5764 16.2332C10.7799 16.4305 11.0217 16.5283 11.3017 16.5283C11.5835 16.5283 11.8244 16.4305 12.0235 16.2332C12.2244 16.0341 12.3257 15.7923 12.3257 15.5078C12.3257 15.2234 12.2244 14.9843 12.0235 14.7896C11.8244 14.5932 11.5844 14.4945 11.3053 14.4945Z" fill="#0E8388"/>
<path d="M14.8669 15.451L15.9123 16.9407H15.3363L14.5612 15.8598L13.7896 16.9407H13.2243L14.2696 15.4687L13.2989 14.075H13.8607L14.5612 15.0705L15.2652 14.075H15.8305L14.8669 15.451Z" fill="#0E8388"/>
<path d="M17.8494 14.0607C18.0502 14.0607 18.2476 14.0998 18.4396 14.1781C18.6334 14.2563 18.8005 14.3656 18.9409 14.5052L18.6565 14.8572C18.5516 14.7434 18.4289 14.6545 18.2867 14.5905C18.1445 14.5247 18.0005 14.491 17.8565 14.491C17.5694 14.491 17.3267 14.5896 17.1276 14.7861C16.9302 14.9807 16.8325 15.2181 16.8325 15.4972C16.8325 15.7816 16.9302 16.0225 17.1276 16.219C17.3267 16.4136 17.5694 16.5105 17.8565 16.5105C18.1551 16.5105 18.4218 16.3967 18.6565 16.1692L18.9445 16.4892C18.7951 16.6341 18.6218 16.7487 18.4254 16.8341C18.2307 16.9194 18.0325 16.9621 17.8316 16.9621C17.412 16.9621 17.0582 16.8225 16.772 16.5425C16.4849 16.2634 16.3418 15.9167 16.3418 15.5043C16.3418 15.0972 16.4876 14.7541 16.7791 14.4767C17.0707 14.1994 17.4271 14.0607 17.8494 14.0607Z" fill="#0E8388"/>
<path d="M21.492 16.2936H20.0449L19.7712 16.9407H19.2663L20.532 14.075H21.0298L22.2814 16.9407H21.7658L21.492 16.2936ZM21.3072 15.8634L20.7667 14.5905L20.2263 15.8634H21.3072Z" fill="#0E8388"/>
<path d="M24.6841 16.9407L24.1614 16.0732C24.133 16.0758 24.0885 16.0767 24.0299 16.0767H23.3507V16.9407H22.8672V14.075H24.0299C24.397 14.075 24.6814 14.1603 24.8832 14.331C25.0841 14.5016 25.1854 14.7425 25.1854 15.0527C25.1854 15.283 25.1339 15.4776 25.0325 15.6358C24.9303 15.7923 24.7836 15.9078 24.5916 15.9807L25.2352 16.9407H24.6841ZM23.3507 15.643H24.0299C24.4939 15.643 24.7267 15.4501 24.7267 15.0634C24.7267 14.6936 24.4939 14.5087 24.0299 14.5087H23.3507V15.643Z" fill="#0E8388"/>
<path d="M12.4432 19.5925C12.2867 19.74 12.1027 19.8129 11.8921 19.8129C11.7729 19.8129 11.6681 19.7933 11.5756 19.7525C11.4849 19.7098 11.4094 19.6556 11.3481 19.5889C11.2885 19.5205 11.2432 19.4413 11.2129 19.3507C11.1818 19.2609 11.1667 19.1676 11.1667 19.0698C11.1667 18.9685 11.1818 18.8742 11.2129 18.7889C11.2458 18.7018 11.2921 18.6271 11.3516 18.5649C11.4103 18.5036 11.4805 18.4547 11.5614 18.4191C11.6441 18.3836 11.7329 18.3658 11.8281 18.3658C11.8921 18.3658 11.9507 18.3747 12.0058 18.3907C12.0601 18.4049 12.1072 18.4253 12.1481 18.4511C12.1907 18.4751 12.2245 18.5027 12.2512 18.5329C12.2796 18.564 12.2983 18.5951 12.3081 18.6253H12.4752C12.4538 18.5756 12.4254 18.5293 12.3898 18.4867C12.3543 18.4422 12.3089 18.404 12.2547 18.3729C12.2023 18.34 12.1409 18.3142 12.0698 18.2947C11.9987 18.276 11.9169 18.2662 11.8245 18.2662C11.6938 18.2662 11.5738 18.2858 11.4654 18.3231C11.3561 18.3613 11.2627 18.4156 11.1845 18.4867C11.1081 18.5578 11.0494 18.6431 11.0067 18.7427C10.9641 18.8422 10.9427 18.9542 10.9427 19.0769C10.9427 19.1818 10.9587 19.2849 10.9925 19.3862C11.0281 19.4858 11.0814 19.5747 11.1525 19.6529C11.2236 19.7311 11.3134 19.7951 11.4227 19.8449C11.5338 19.892 11.6663 19.916 11.8209 19.916C11.9178 19.916 12.0041 19.9062 12.0805 19.8876C12.1587 19.8689 12.2263 19.8467 12.2832 19.82C12.3401 19.7942 12.3872 19.7658 12.4254 19.7347C12.4627 19.7045 12.4912 19.6778 12.5107 19.6565L12.4432 19.5925Z" fill="#0E8388"/>
<path d="M13.5121 19.8876V18.2947H13.7183V19.7631H14.5396V19.8876H13.5121Z" fill="#0E8388"/>
<path d="M15.4713 18.2947V19.2725C15.4713 19.3347 15.4767 19.4031 15.4891 19.4787C15.5007 19.5551 15.5291 19.6245 15.5745 19.6885C15.6216 19.7525 15.6891 19.8076 15.7771 19.852C15.8669 19.8947 15.9905 19.916 16.1469 19.916C16.2438 19.916 16.3291 19.9 16.4029 19.8698C16.4785 19.8396 16.5416 19.7978 16.5913 19.7453C16.6429 19.6911 16.682 19.6298 16.7087 19.5605C16.7345 19.4893 16.7478 19.4138 16.7478 19.3329V18.2947H16.6447V19.2582C16.6447 19.292 16.6429 19.3258 16.6411 19.3613C16.6411 19.3951 16.6376 19.428 16.6305 19.4609C16.6233 19.4947 16.6109 19.5285 16.5949 19.564C16.578 19.5978 16.5558 19.6307 16.5273 19.6636C16.4705 19.7231 16.4073 19.7631 16.3389 19.7845C16.2722 19.8058 16.202 19.8165 16.1291 19.8165C16.0651 19.8165 16.0082 19.8076 15.9585 19.788C15.9087 19.7667 15.8607 19.7365 15.8162 19.6956C15.7825 19.6653 15.7567 19.6351 15.738 19.6067C15.7185 19.5765 15.7042 19.5462 15.6953 19.5178C15.6882 19.4876 15.6829 19.4565 15.6811 19.4253C15.6785 19.3951 15.6776 19.364 15.6776 19.3329V18.2947H15.4713Z" fill="#0E8388"/>
<path d="M17.8844 19.8876H18.4533C18.5547 19.8876 18.64 19.8751 18.7093 19.8485C18.7804 19.8227 18.8373 19.788 18.88 19.7453C18.9227 19.7027 18.9529 19.6547 18.9724 19.5996C18.9911 19.5453 19.0009 19.4911 19.0009 19.436C19.0009 19.3507 18.9813 19.2822 18.944 19.2298C18.9084 19.1782 18.864 19.1391 18.8124 19.1125C18.76 19.084 18.7067 19.0662 18.6524 19.0591C18.5973 19.0502 18.5538 19.044 18.5209 19.0413V19.0307C18.5724 19.0307 18.6222 19.0218 18.6702 19.0022C18.7173 18.9809 18.7591 18.9551 18.7947 18.924C18.8302 18.8911 18.8587 18.8529 18.88 18.8102C18.9013 18.7658 18.912 18.7196 18.912 18.6716C18.912 18.6289 18.9022 18.5862 18.8835 18.5436C18.8667 18.4991 18.8391 18.4582 18.8018 18.4227C18.7635 18.3853 18.7147 18.3542 18.656 18.3302C18.5991 18.3071 18.5315 18.2947 18.4533 18.2947H17.8844V19.8876ZM18.0907 19.788V19.0911H18.3395C18.4151 19.0911 18.48 19.1018 18.5351 19.1231C18.5893 19.1427 18.6347 19.1685 18.6702 19.2013C18.7058 19.2351 18.7315 19.2742 18.7484 19.3187C18.7671 19.3613 18.7769 19.4067 18.7769 19.4538C18.7769 19.5089 18.7671 19.556 18.7484 19.596C18.7289 19.6369 18.7031 19.6725 18.6702 19.7027C18.6391 19.7311 18.6009 19.7525 18.5564 19.7667C18.5138 19.7809 18.4684 19.788 18.4213 19.788H18.0907ZM18.0907 18.9916V18.3942H18.368C18.4267 18.3942 18.4764 18.4031 18.5173 18.4191C18.56 18.436 18.5938 18.4582 18.6204 18.4867C18.6489 18.5133 18.6684 18.5436 18.6809 18.5791C18.6924 18.6147 18.6987 18.6493 18.6987 18.6822C18.6987 18.7276 18.6889 18.7693 18.6702 18.8067C18.6533 18.8449 18.6293 18.8778 18.5991 18.9062C18.568 18.9329 18.5324 18.9542 18.4924 18.9702C18.4515 18.9845 18.4089 18.9916 18.3644 18.9916H18.0907Z" fill="#0E8388"/>
<path d="M20.0706 18.2947V19.8876H21.0982V19.7631H20.2769V19.0947H20.9809V18.9916H20.2769V18.4191H21.0982V18.2947H20.0706Z" fill="#0E8388"/>
</svg>
