<svg width="52" height="13" viewBox="0 0 52 13" fill="none" xmlns="http://www.w3.org/2000/svg">
<mask id="mask0_341_8648" style="mask-type:alpha" maskUnits="userSpaceOnUse" x="0" y="0" width="12" height="13">
<rect y="0.333252" width="12" height="12" fill="#D9D9D9"/>
</mask>
<g mask="url(#mask0_341_8648)">
<path d="M5.5 2.83325V0.833252H6.5V2.83325H5.5ZM8.825 4.20825L8.1375 3.52075L9.5375 2.08325L10.2375 2.79575L8.825 4.20825ZM9.5 6.83325V5.83325H11.5V6.83325H9.5ZM5.5 11.8333V9.83325H6.5V11.8333H5.5ZM3.175 4.18325L1.75 2.79575L2.4625 2.09575L3.875 3.50825L3.175 4.18325ZM9.525 10.5833L8.1375 9.14575L8.8125 8.47075L10.2375 9.84575L9.525 10.5833ZM0.5 6.83325V5.83325H2.5V6.83325H0.5ZM2.4625 10.5833L1.7625 9.87075L3.1625 8.47075L3.525 8.80825L3.8875 9.15825L2.4625 10.5833ZM6 9.33325C5.16667 9.33325 4.45833 9.04159 3.875 8.45825C3.29167 7.87492 3 7.16659 3 6.33325C3 5.49992 3.29167 4.79159 3.875 4.20825C4.45833 3.62492 5.16667 3.33325 6 3.33325C6.83333 3.33325 7.54167 3.62492 8.125 4.20825C8.70833 4.79159 9 5.49992 9 6.33325C9 7.16659 8.70833 7.87492 8.125 8.45825C7.54167 9.04159 6.83333 9.33325 6 9.33325ZM6 8.33325C6.55 8.33325 7.02083 8.13742 7.4125 7.74575C7.80417 7.35409 8 6.88325 8 6.33325C8 5.78325 7.80417 5.31242 7.4125 4.92075C7.02083 4.52909 6.55 4.33325 6 4.33325C5.45 4.33325 4.97917 4.52909 4.5875 4.92075C4.19583 5.31242 4 5.78325 4 6.33325C4 6.88325 4.19583 7.35409 4.5875 7.74575C4.97917 8.13742 5.45 8.33325 6 8.33325Z" fill="#0E8388"/>
</g>
<mask id="mask1_341_8648" style="mask-type:alpha" maskUnits="userSpaceOnUse" x="20" y="0" width="12" height="13">
<rect x="20" y="0.333252" width="12" height="12" fill="#D9D9D9"/>
</mask>
<g mask="url(#mask1_341_8648)">
<path d="M23.5 9.33325C22.6667 9.33325 21.9583 9.04159 21.375 8.45825C20.7917 7.87492 20.5 7.16659 20.5 6.33325C20.5 5.49992 20.7917 4.79159 21.375 4.20825C21.9583 3.62492 22.6667 3.33325 23.5 3.33325H28.5C29.3333 3.33325 30.0417 3.62492 30.625 4.20825C31.2083 4.79159 31.5 5.49992 31.5 6.33325C31.5 7.16659 31.2083 7.87492 30.625 8.45825C30.0417 9.04159 29.3333 9.33325 28.5 9.33325H23.5ZM23.5 8.33325H28.5C29.05 8.33325 29.5208 8.13742 29.9125 7.74575C30.3042 7.35409 30.5 6.88325 30.5 6.33325C30.5 5.78325 30.3042 5.31242 29.9125 4.92075C29.5208 4.52909 29.05 4.33325 28.5 4.33325H23.5C22.95 4.33325 22.4792 4.52909 22.0875 4.92075C21.6958 5.31242 21.5 5.78325 21.5 6.33325C21.5 6.88325 21.6958 7.35409 22.0875 7.74575C22.4792 8.13742 22.95 8.33325 23.5 8.33325ZM28.5 7.83325C28.9167 7.83325 29.2708 7.68742 29.5625 7.39575C29.8542 7.10409 30 6.74992 30 6.33325C30 5.91659 29.8542 5.56242 29.5625 5.27075C29.2708 4.97909 28.9167 4.83325 28.5 4.83325C28.0833 4.83325 27.7292 4.97909 27.4375 5.27075C27.1458 5.56242 27 5.91659 27 6.33325C27 6.74992 27.1458 7.10409 27.4375 7.39575C27.7292 7.68742 28.0833 7.83325 28.5 7.83325Z" fill="#0E8388"/>
</g>
<mask id="mask2_341_8648" style="mask-type:alpha" maskUnits="userSpaceOnUse" x="40" y="0" width="12" height="13">
<rect x="40" y="0.333252" width="12" height="12" fill="#D9D9D9"/>
</mask>
<g mask="url(#mask2_341_8648)">
<path d="M46 10.8333C44.75 10.8333 43.6875 10.3958 42.8125 9.52075C41.9375 8.64575 41.5 7.58325 41.5 6.33325C41.5 5.08325 41.9375 4.02075 42.8125 3.14575C43.6875 2.27075 44.75 1.83325 46 1.83325C46.1167 1.83325 46.2312 1.83742 46.3438 1.84575C46.4563 1.85409 46.5667 1.86659 46.675 1.88325C46.3333 2.12492 46.0604 2.4395 45.8563 2.827C45.6521 3.2145 45.55 3.63325 45.55 4.08325C45.55 4.83325 45.8125 5.47075 46.3375 5.99575C46.8625 6.52075 47.5 6.78325 48.25 6.78325C48.7083 6.78325 49.1292 6.68117 49.5125 6.477C49.8958 6.27284 50.2083 5.99992 50.45 5.65825C50.4667 5.76659 50.4792 5.877 50.4875 5.9895C50.4958 6.102 50.5 6.21659 50.5 6.33325C50.5 7.58325 50.0625 8.64575 49.1875 9.52075C48.3125 10.3958 47.25 10.8333 46 10.8333ZM46 9.83325C46.7333 9.83325 47.3917 9.63117 47.975 9.227C48.5583 8.82284 48.9833 8.29575 49.25 7.64575C49.0833 7.68742 48.9167 7.72075 48.75 7.74575C48.5833 7.77075 48.4167 7.78325 48.25 7.78325C47.225 7.78325 46.3521 7.42284 45.6312 6.702C44.9104 5.98117 44.55 5.10825 44.55 4.08325C44.55 3.91659 44.5625 3.74992 44.5875 3.58325C44.6125 3.41659 44.6458 3.24992 44.6875 3.08325C44.0375 3.34992 43.5104 3.77492 43.1063 4.35825C42.7021 4.94159 42.5 5.59992 42.5 6.33325C42.5 7.29992 42.8417 8.12492 43.525 8.80825C44.2083 9.49159 45.0333 9.83325 46 9.83325Z" fill="#0E8388"/>
</g>
</svg>
